<?xml version="1.0" encoding="UTF-8" standalone="no"?>
<!DOCTYPE svg PUBLIC "-//W3C//DTD SVG 1.1//EN" "http://www.w3.org/Graphics/SVG/1.1/DTD/svg11.dtd">
<svg xmlns:dc="http://purl.org/dc/elements/1.1/" xmlns:xl="http://www.w3.org/1999/xlink" xmlns="http://www.w3.org/2000/svg" version="1.1" viewBox="-1.5 -1.5 598.2756 844.8898" width="598.2756" height="844.8898">
  <defs/>
  <g id="Handles" stroke-opacity="1" stroke-dasharray="none" fill="none" stroke="none" fill-opacity="1">
    <title>Handles</title>
    <g id="Handles_PageEdges">
      <title>PageEdges</title>
      <g id="Graphic_11">
        <path d="M 0 0 L 595.2756 0 L 595.2756 841.8898 L 0 841.8898 Z" stroke="#999" stroke-linecap="round" stroke-linejoin="round" stroke-dasharray="24.0,15.0" stroke-width="3"/>
      </g>
    </g>
    <g id="Handles_Outlines">
      <title>Outlines</title>
      <g id="Graphic_9">
        <path d="M 323.1496 167.2441 C 349.87955 167.5983 376.50137 177.98267 396.8971 198.3785 C 416.5718 218.05308 427.00624 243.52126 428.0315 269.29135 L 428.0315 325.98426 L 481.88976 325.98426 L 481.88976 113.38583 L 481.88976 113.38583 L 113.38583 113.38583 L 113.38583 325.98426 L 167.2441 325.98426 L 167.2441 269.29134 C 168.26935 243.52126 178.70381 218.05308 198.3785 198.3785 C 218.77423 177.98267 245.39604 167.5983 272.126 167.2441 Z" fill="white"/>
        <path d="M 323.1496 167.2441 C 349.87955 167.5983 376.50137 177.98267 396.8971 198.3785 C 416.5718 218.05308 427.00624 243.52126 428.0315 269.29135 L 428.0315 325.98426 L 481.88976 325.98426 L 481.88976 113.38583 L 481.88976 113.38583 L 113.38583 113.38583 L 113.38583 325.98426 L 167.2441 325.98426 L 167.2441 269.29134 C 168.26935 243.52126 178.70381 218.05308 198.3785 198.3785 C 218.77423 177.98267 245.39604 167.5983 272.126 167.2441 Z" stroke="black" stroke-linecap="round" stroke-linejoin="round" stroke-width="1"/>
      </g>
      <g id="Graphic_10">
        <path d="M 323.1496 564.0945 C 349.87955 564.4487 376.50137 574.8331 396.8971 595.2289 C 416.5718 614.9035 427.00624 640.3717 428.0315 666.14175 L 428.0315 722.8347 L 481.88976 722.8347 L 481.88976 510.23623 L 481.88976 510.23623 L 113.38583 510.23623 L 113.38583 722.8347 L 167.2441 722.8347 L 167.2441 666.14175 C 168.26935 640.37166 178.70381 614.9035 198.3785 595.2289 C 218.77423 574.8331 245.39604 564.4487 272.126 564.0945 Z" fill="white"/>
        <path d="M 323.1496 564.0945 C 349.87955 564.4487 376.50137 574.8331 396.8971 595.2289 C 416.5718 614.9035 427.00624 640.3717 428.0315 666.14175 L 428.0315 722.8347 L 481.88976 722.8347 L 481.88976 510.23623 L 481.88976 510.23623 L 113.38583 510.23623 L 113.38583 722.8347 L 167.2441 722.8347 L 167.2441 666.14175 C 168.26935 640.37166 178.70381 614.9035 198.3785 595.2289 C 218.77423 574.8331 245.39604 564.4487 272.126 564.0945 Z" stroke="black" stroke-linecap="round" stroke-linejoin="round" stroke-width="1"/>
      </g>
    </g>
  </g>
</svg>
