<?xml version="1.0" encoding="UTF-8" standalone="no"?>
<!DOCTYPE svg PUBLIC "-//W3C//DTD SVG 1.1//EN" "http://www.w3.org/Graphics/SVG/1.1/DTD/svg11.dtd">
<svg xmlns:dc="http://purl.org/dc/elements/1.1/" xmlns:xl="http://www.w3.org/1999/xlink" xmlns="http://www.w3.org/2000/svg" version="1.1" viewBox="-1.5 -10.468906 1193.5512 1695.7484" width="1193.5512" height="1695.7484">
  <defs/>
  <g id="Shield" stroke-opacity="1" stroke-dasharray="none" fill="none" stroke="none" fill-opacity="1">
    <title>Shield</title>
    <g id="Shield_PageEdges">
      <title>PageEdges</title>
      <g id="Line_4">
        <title>Vertical</title>
        <line x1="595.2756" y1="0" x2="595.2756" y2="1683.7795" stroke="#999" stroke-linecap="round" stroke-linejoin="round" stroke-dasharray="24.0,15.0" stroke-width="3"/>
      </g>
      <g id="Line_9">
        <title>Vertical</title>
        <line x1="0" y1="841.8898" x2="1190.5512" y2="841.8898" stroke="#999" stroke-linecap="round" stroke-linejoin="round" stroke-dasharray="24.0,15.0" stroke-width="3"/>
      </g>
      <g id="Graphic_10">
        <path d="M 0 0 L 1190.5512 0 L 1190.5512 1683.7795 L 0 1683.7795 Z" stroke="#999" stroke-linecap="round" stroke-linejoin="round" stroke-dasharray="24.0,15.0" stroke-width="3"/>
      </g>
    </g>
    <g id="Shield_Outline">
      <title>Outline</title>
      <g id="Graphic_3">
        <title>Shield</title>
        <path d="M 170.07874 56.692915 C 198.4252 56.692915 992.126 56.692915 1020.4725 56.692915 C 1048.8189 56.692915 1062.9922 56.692915 1077.1654 85.03937 C 1091.3386 113.38583 1162.2048 481.8898 1006.2992 822.0473 C 850.3937 1162.2048 666.14175 1247.2441 595.2756 1247.2441 C 524.40946 1247.2441 340.1575 1162.2048 184.25197 822.0473 C 28.346457 481.8898 99.2126 113.38583 113.38583 85.03937 C 127.55906 56.692915 141.73229 56.692915 170.07874 56.692915 Z" stroke="black" stroke-linecap="round" stroke-linejoin="round" stroke-width="3"/>
      </g>
    </g>
  </g>
</svg>
